<?xml version="1.0" encoding="UTF-8"?><svg id="Layer_1" xmlns="http://www.w3.org/2000/svg" viewBox="0 0 360 252"><defs><style>.cls-1{fill:#fff;}.cls-2{fill:#003da5;}</style></defs><rect class="cls-2" x="170.74" y="172.07" width="16.36" height="2.02"/><path class="cls-2" d="M268.33,209.54c.24.23,1.13.94,2.64.94,1.69,0,2.76-1.14,2.76-2.38,0-1.55-1.34-2.24-2.51-2.71-.97-.4-1.42-.78-1.42-1.34,0-.38.37-.84,1.06-.84s1.57.6,1.67.66c.14.1.32,0,.42-.14l.46-.68c.08-.12.05-.32-.07-.4-.24-.18-1.18-.8-2.4-.8-1.91,0-2.7,1.24-2.7,2.3,0,1.42,1.13,2.14,2.25,2.59,1.01.41,1.53.83,1.53,1.44,0,.52-.47.92-1.09.92-.78,0-1.75-.71-1.81-.74-.11-.08-.31-.08-.41.09l-.43.74c-.11.19-.05.25.06.36M261.72,205.84v-2.41h1.39c.67,0,1.24.51,1.24,1.16,0,.71-.56,1.25-1.24,1.25h-1.39ZM260.16,210.12c0,.12.1.23.23.23h1.1c.12,0,.23-.11.23-.23v-2.82h1.5c1.46,0,2.68-1.21,2.68-2.7s-1.21-2.65-2.69-2.65h-2.82c-.13,0-.23.11-.23.23v7.94ZM255.09,210.12c0,.12.11.23.23.23h1.12c.12,0,.23-.11.23-.23v-7.94c0-.12-.11-.23-.23-.23h-1.12c-.12,0-.23.11-.23.23v7.94ZM244.53,210.12c0,.12.11.23.23.23h1.12c.13,0,.23-.11.23-.23v-3.31h3.91v3.31c0,.12.1.23.23.23h1.1c.12,0,.23-.11.23-.23v-7.94c0-.12-.11-.23-.23-.23h-1.1c-.13,0-.23.11-.23.23v3.18h-3.91v-3.18c0-.12-.1-.23-.23-.23h-1.12c-.12,0-.23.11-.23.23v7.94ZM236.2,209.54c.24.23,1.13.94,2.64.94,1.69,0,2.76-1.14,2.76-2.38,0-1.55-1.34-2.24-2.51-2.71-.97-.4-1.42-.78-1.42-1.34,0-.38.37-.84,1.06-.84s1.57.6,1.67.66c.14.1.32,0,.42-.14l.46-.68c.08-.12.05-.32-.07-.4-.24-.18-1.18-.8-2.4-.8-1.91,0-2.7,1.24-2.7,2.3,0,1.42,1.13,2.14,2.25,2.59,1.01.41,1.53.83,1.53,1.44,0,.52-.47.92-1.09.92-.78,0-1.75-.71-1.81-.74-.11-.08-.31-.08-.41.09l-.43.74c-.11.19-.05.25.06.36M228.85,205.78v-2.39h1.96c.64,0,1.19.53,1.19,1.16,0,.67-.55,1.22-1.19,1.22h-1.96ZM227.28,210.12c0,.12.1.23.23.23h1.1c.12,0,.23-.11.23-.23v-3.06h1.33l1.6,3.18s.08.11.19.11h1.26c.2,0,.29-.19.2-.35l-1.64-3.05c1.04-.42,1.78-1.32,1.78-2.42,0-1.43-1.18-2.58-2.62-2.58h-3.43c-.13,0-.23.11-.23.23v7.94ZM218.84,210.12c0,.12.1.23.23.23h4.88c.13,0,.23-.11.23-.23v-.98c0-.12-.1-.23-.23-.23h-3.55v-2.1h2.96c.12,0,.23-.1.23-.23v-.99c0-.12-.11-.23-.23-.23h-2.96v-1.97h3.55c.13,0,.23-.11.23-.23v-.98c0-.12-.1-.23-.23-.23h-4.88c-.13,0-.23.11-.23.23v7.94ZM208.23,210.12c0,.12.11.23.23.23h1.09c.13,0,.23-.11.23-.23v-5.16h.01l5.02,5.51h.29c.12,0,.23-.1.23-.22v-8.07c0-.12-.11-.23-.23-.23h-1.1c-.13,0-.23.11-.23.23v4.95h-.01l-4.99-5.3h-.3c-.12,0-.23.1-.23.22v8.07ZM202.05,210.12c0,.12.11.23.23.23h1.11c.12,0,.23-.11.23-.23v-6.73h1.84c.13,0,.23-.11.23-.23v-.98c0-.12-.1-.23-.23-.23h-5.24c-.13,0-.23.11-.23.23v.98c0,.12.1.23.23.23h1.84v6.73ZM193.1,205.78v-2.39h1.96c.64,0,1.19.53,1.19,1.16,0,.67-.55,1.22-1.19,1.22h-1.96ZM191.53,210.12c0,.12.1.23.23.23h1.1c.12,0,.23-.11.23-.23v-3.06h1.33l1.6,3.18s.08.11.19.11h1.26c.2,0,.29-.19.2-.35l-1.64-3.05c1.04-.42,1.77-1.32,1.77-2.42,0-1.43-1.18-2.58-2.62-2.58h-3.43c-.13,0-.23.11-.23.23v7.94ZM183.86,207.49l1.18-2.64h.04l1.2,2.64h-2.41ZM181.3,210.35h1.04c.19,0,.3-.12.35-.24l.59-1.3h3.59l.59,1.3c.08.17.17.24.35.24h1.04c.18,0,.28-.16.2-.31l-3.7-8.07c-.04-.07-.08-.13-.2-.13h-.12c-.11,0-.17.06-.2.13l-3.73,8.07c-.07.16.02.31.2.31M175.87,205.84v-2.41h1.39c.67,0,1.24.51,1.24,1.16,0,.71-.56,1.25-1.24,1.25h-1.39ZM174.31,210.12c0,.12.1.23.23.23h1.1c.12,0,.23-.11.23-.23v-2.82h1.5c1.46,0,2.67-1.21,2.67-2.7s-1.21-2.65-2.69-2.65h-2.82c-.13,0-.23.11-.23.23v7.94ZM163.63,210.12c0,.12.1.23.23.23h1.1c.12,0,.23-.11.23-.23v-3.83l2.77-3.99c.1-.16,0-.35-.19-.35h-1.24c-.1,0-.16.06-.19.11l-1.92,2.76-1.92-2.76s-.1-.11-.19-.11h-1.22c-.19,0-.29.19-.19.35l2.74,4.01v3.82ZM155.26,210.12c0,.12.11.23.23.23h1.11c.12,0,.23-.11.23-.23v-6.73h1.84c.13,0,.23-.11.23-.23v-.98c0-.12-.1-.23-.23-.23h-5.24c-.13,0-.23.11-.23.23v.98c0,.12.1.23.23.23h1.84v6.73ZM149.1,210.12c0,.12.11.23.23.23h1.12c.12,0,.23-.11.23-.23v-7.94c0-.12-.11-.23-.23-.23h-1.12c-.12,0-.23.11-.23.23v7.94ZM138.49,210.12c0,.12.11.23.23.23h1.09c.13,0,.23-.11.23-.23v-5.16h.01l5.02,5.51h.29c.12,0,.23-.1.23-.22v-8.07c0-.12-.11-.23-.23-.23h-1.1c-.13,0-.23.11-.23.23v4.95h-.01l-4.99-5.3h-.3c-.12,0-.23.1-.23.22v8.07ZM128.38,207.17c0,1.82,1.45,3.3,3.33,3.3s3.35-1.47,3.35-3.3v-4.99c0-.12-.11-.23-.23-.23h-1.14c-.13,0-.23.11-.23.23v4.92c0,1.01-.71,1.81-1.75,1.81s-1.74-.8-1.74-1.82v-4.91c0-.12-.1-.23-.23-.23h-1.14c-.12,0-.23.11-.23.23v4.99ZM116.22,210.08c-.02.17.07.28.23.28h1.08c.11,0,.2-.1.22-.18l.7-4.55h.04l2.12,4.72c.04.07.1.13.2.13h.22c.11,0,.18-.06.2-.13l2.1-4.72h.04l.71,4.55c.02.08.12.18.23.18h1.09c.16,0,.25-.11.22-.28l-1.42-8.06c-.01-.1-.08-.18-.22-.18h-.19c-.11,0-.17.05-.2.12l-2.64,5.66h-.04l-2.64-5.66c-.04-.07-.11-.12-.2-.12h-.19c-.13,0-.2.08-.22.18l-1.43,8.06ZM104.36,210.08c-.02.17.07.28.23.28h1.08c.11,0,.2-.1.22-.18l.7-4.55h.04l2.12,4.72c.04.07.1.13.2.13h.22c.11,0,.18-.06.2-.13l2.1-4.72h.04l.71,4.55c.02.08.12.18.23.18h1.09c.16,0,.25-.11.22-.28l-1.42-8.06c-.01-.1-.08-.18-.22-.18h-.19c-.11,0-.17.05-.2.12l-2.64,5.66h-.04l-2.64-5.66c-.04-.07-.11-.12-.2-.12h-.19c-.13,0-.2.08-.22.18l-1.43,8.06ZM94.99,206.16c0-1.51,1.24-2.77,2.75-2.77s2.76,1.26,2.76,2.77-1.25,2.75-2.76,2.75-2.75-1.24-2.75-2.75M93.43,206.16c0,2.4,1.91,4.31,4.31,4.31s4.32-1.91,4.32-4.31-1.92-4.33-4.32-4.33-4.31,1.93-4.31,4.33M84.09,206.16c0,2.4,1.93,4.31,4.33,4.31,1.07,0,2.1-.37,2.92-1.16.08-.08.11-.24.01-.32l-.74-.77c-.07-.07-.2-.08-.3,0-.5.41-1.12.68-1.84.68-1.54,0-2.69-1.27-2.69-2.77s1.14-2.8,2.68-2.8c.67,0,1.34.26,1.85.71.1.1.22.1.3,0l.73-.76c.1-.1.1-.24-.01-.34-.82-.73-1.69-1.11-2.9-1.11-2.4,0-4.33,1.93-4.33,4.33"/><path class="cls-2" d="M256.23,191.89v-5.49h1.37c1.56,0,2.7,1.18,2.7,2.74s-1.14,2.75-2.7,2.75h-1.37ZM254.68,193.12c0,.12.1.23.22.23h2.84c2.32,0,4.21-1.88,4.21-4.21s-1.89-4.19-4.21-4.19h-2.84c-.12,0-.22.11-.22.23v7.94ZM244.07,193.12c0,.12.11.23.23.23h1.09c.13,0,.23-.11.23-.23v-5.16h.01l5.02,5.51h.29c.12,0,.23-.1.23-.22v-8.07c0-.12-.11-.23-.23-.23h-1.1c-.13,0-.23.11-.23.23v4.95h-.01l-4.99-5.3h-.3c-.12,0-.23.1-.23.22v8.07ZM236.41,190.49l1.18-2.64h.04l1.2,2.64h-2.41ZM233.84,193.35h1.04c.19,0,.3-.12.35-.24l.59-1.3h3.59l.59,1.3c.08.17.17.24.35.24h1.04c.18,0,.28-.16.2-.31l-3.7-8.07c-.04-.07-.08-.13-.2-.13h-.12c-.11,0-.17.06-.2.13l-3.73,8.07c-.07.16.02.31.2.31M223.38,193.12c0,.12.1.23.23.23h4.39c.13,0,.23-.11.23-.23v-.98c0-.12-.1-.23-.23-.23h-3.06v-6.73c0-.12-.11-.23-.23-.23h-1.1c-.13,0-.23.11-.23.23v7.94ZM213.35,189.16c0-1.51,1.24-2.77,2.75-2.77s2.76,1.26,2.76,2.77-1.25,2.75-2.76,2.75-2.75-1.24-2.75-2.75M211.8,189.16c0,2.4,1.91,4.31,4.31,4.31s4.32-1.91,4.32-4.31-1.92-4.33-4.32-4.33-4.31,1.93-4.31,4.33M202.31,189.16c0-1.51,1.24-2.77,2.75-2.77s2.76,1.26,2.76,2.77-1.25,2.75-2.76,2.75-2.75-1.24-2.75-2.75M200.76,189.16c0,2.4,1.91,4.31,4.31,4.31s4.32-1.91,4.32-4.31-1.92-4.33-4.32-4.33-4.31,1.93-4.31,4.33M190.76,193.12c0,.12.11.23.23.23h1.11c.13,0,.23-.11.23-.23v-3.31h3.91v3.31c0,.12.1.23.23.23h1.1c.12,0,.23-.11.23-.23v-7.94c0-.12-.11-.23-.23-.23h-1.1c-.13,0-.23.11-.23.23v3.18h-3.91v-3.18c0-.12-.1-.23-.23-.23h-1.11c-.12,0-.23.11-.23.23v7.94ZM180.65,189.16c0,2.4,1.93,4.31,4.33,4.31,1.07,0,2.1-.37,2.92-1.16.08-.08.11-.24.01-.32l-.74-.77c-.07-.07-.2-.09-.3,0-.5.41-1.12.68-1.84.68-1.54,0-2.69-1.27-2.69-2.77s1.14-2.8,2.68-2.8c.67,0,1.34.26,1.85.71.1.1.22.1.3,0l.73-.76c.1-.1.1-.24-.01-.34-.82-.73-1.69-1.11-2.9-1.11-2.4,0-4.33,1.93-4.33,4.33M172.98,192.54c.24.23,1.13.93,2.64.93,1.69,0,2.76-1.14,2.76-2.38,0-1.55-1.34-2.24-2.51-2.71-.97-.4-1.42-.78-1.42-1.34,0-.39.37-.84,1.06-.84s1.57.6,1.67.66c.14.1.32,0,.42-.14l.46-.68c.08-.12.05-.32-.07-.4-.24-.18-1.18-.8-2.4-.8-1.91,0-2.7,1.24-2.7,2.3,0,1.42,1.13,2.14,2.25,2.59,1.01.41,1.53.83,1.53,1.44,0,.52-.47.92-1.09.92-.78,0-1.75-.71-1.81-.75-.11-.08-.31-.08-.41.09l-.43.74c-.11.19-.05.25.06.36M161.35,193.12c0,.12.1.23.23.23h1.1c.12,0,.23-.11.23-.23v-3.04h2.96c.12,0,.23-.11.23-.23v-.98c0-.12-.11-.23-.23-.23h-2.96v-2.26h3.55c.13,0,.23-.11.23-.23v-.98c0-.12-.1-.23-.23-.23h-4.88c-.13,0-.23.11-.23.23v7.94ZM151.33,189.16c0-1.51,1.24-2.77,2.75-2.77s2.76,1.26,2.76,2.77-1.25,2.75-2.76,2.75-2.75-1.24-2.75-2.75M149.77,189.16c0,2.4,1.91,4.31,4.31,4.31s4.32-1.91,4.32-4.31-1.92-4.33-4.32-4.33-4.31,1.93-4.31,4.33M138.02,193.12c0,.12.1.23.23.23h4.88c.13,0,.23-.11.23-.23v-.98c0-.12-.1-.23-.23-.23h-3.55v-2.1h2.96c.12,0,.23-.1.23-.23v-.99c0-.12-.11-.23-.23-.23h-2.96v-1.97h3.55c.13,0,.23-.11.23-.23v-.98c0-.12-.1-.23-.23-.23h-4.88c-.13,0-.23.11-.23.23v7.94ZM127.91,189.16c0,2.4,1.93,4.31,4.33,4.31,1.07,0,2.1-.37,2.92-1.16.08-.08.11-.24.01-.32l-.74-.77c-.07-.07-.2-.09-.3,0-.5.41-1.12.68-1.84.68-1.54,0-2.69-1.27-2.69-2.77s1.14-2.8,2.68-2.8c.67,0,1.34.26,1.85.71.1.1.22.1.3,0l.73-.76c.1-.1.1-.24-.01-.34-.82-.73-1.69-1.11-2.9-1.11-2.4,0-4.33,1.93-4.33,4.33M123.41,193.12c0,.12.11.23.23.23h1.11c.12,0,.23-.11.23-.23v-7.94c0-.12-.11-.23-.23-.23h-1.11c-.12,0-.23.11-.23.23v7.94ZM115.41,193.12c0,.12.1.23.23.23h1.1c.12,0,.23-.11.23-.23v-3.04h2.96c.12,0,.23-.11.23-.23v-.98c0-.12-.11-.23-.23-.23h-2.96v-2.26h3.55c.13,0,.23-.11.23-.23v-.98c0-.12-.1-.23-.23-.23h-4.88c-.13,0-.23.11-.23.23v7.94ZM107.41,193.12c0,.12.1.23.23.23h1.1c.12,0,.23-.11.23-.23v-3.04h2.96c.12,0,.23-.11.23-.23v-.98c0-.12-.11-.23-.23-.23h-2.96v-2.26h3.55c.13,0,.23-.11.23-.23v-.98c0-.12-.1-.23-.23-.23h-4.88c-.13,0-.23.11-.23.23v7.94ZM97.38,189.16c0-1.51,1.24-2.77,2.75-2.77s2.76,1.26,2.76,2.77-1.25,2.75-2.76,2.75-2.75-1.24-2.75-2.75M95.83,189.16c0,2.4,1.91,4.31,4.31,4.31s4.32-1.91,4.32-4.31-1.92-4.33-4.32-4.33-4.31,1.93-4.31,4.33"/><path class="cls-2" d="M308.26,160.7c0,.2.16.38.38.38h1.84c.2,0,.38-.18.38-.38v-6.38l4.62-6.66c.16-.26,0-.58-.32-.58h-2.06c-.16,0-.26.1-.32.18l-3.2,4.6-3.2-4.6c-.06-.08-.16-.18-.32-.18h-2.04c-.32,0-.48.32-.32.58l4.56,6.68v6.36ZM294.55,160.7c0,.2.18.38.38.38h1.86c.2,0,.38-.18.38-.38v-11.22h3.06c.22,0,.38-.18.38-.38v-1.64c0-.2-.16-.38-.38-.38h-8.74c-.22,0-.38.18-.38.38v1.64c0,.2.16.38.38.38h3.06v11.22ZM284.53,160.7c0,.2.18.38.38.38h1.86c.2,0,.38-.18.38-.38v-13.24c0-.2-.18-.38-.38-.38h-1.86c-.2,0-.38.18-.38.38v13.24ZM270.91,159.72c.4.38,1.88,1.56,4.4,1.56,2.82,0,4.6-1.9,4.6-3.96,0-2.58-2.24-3.74-4.18-4.52-1.62-.66-2.36-1.3-2.36-2.24,0-.64.62-1.4,1.76-1.4s2.62,1,2.78,1.1c.24.16.54,0,.7-.24l.76-1.14c.14-.2.08-.54-.12-.66-.4-.3-1.96-1.34-4-1.34-3.18,0-4.5,2.06-4.5,3.84,0,2.36,1.88,3.56,3.76,4.32,1.68.68,2.54,1.38,2.54,2.4,0,.86-.78,1.54-1.82,1.54-1.3,0-2.92-1.18-3.02-1.24-.18-.14-.52-.14-.68.14l-.72,1.24c-.18.32-.08.42.1.6M258.91,153.46v-3.98h3.26c1.06,0,1.98.88,1.98,1.94,0,1.12-.92,2.04-1.98,2.04h-3.26ZM256.29,160.7c0,.2.16.38.38.38h1.84c.2,0,.38-.18.38-.38v-5.1h2.22l2.66,5.3c.04.08.14.18.32.18h2.1c.34,0,.48-.32.34-.58l-2.74-5.08c1.74-.7,2.96-2.2,2.96-4.04,0-2.38-1.96-4.3-4.36-4.3h-5.72c-.22,0-.38.18-.38.38v13.24ZM242.47,160.7c0,.2.16.38.38.38h8.14c.22,0,.38-.18.38-.38v-1.64c0-.2-.16-.38-.38-.38h-5.92v-3.5h4.94c.2,0,.38-.16.38-.38v-1.66c0-.2-.18-.38-.38-.38h-4.94v-3.28h5.92c.22,0,.38-.18.38-.38v-1.64c0-.2-.16-.38-.38-.38h-8.14c-.22,0-.38.18-.38.38v13.24ZM231.51,161.06c.06.12.16.22.34.22h.2c.18,0,.28-.1.34-.22l6.2-13.46c.12-.26-.04-.52-.34-.52h-2.04c-.18,0-.3.12-.34.22l-3.84,8.6h-.14l-3.84-8.6c-.04-.1-.16-.22-.34-.22h-2.04c-.3,0-.46.26-.34.52l6.18,13.46ZM218.85,160.7c0,.2.18.38.38.38h1.86c.2,0,.38-.18.38-.38v-13.24c0-.2-.18-.38-.38-.38h-1.86c-.2,0-.38.18-.38.38v13.24ZM201.42,160.7c0,.2.18.38.38.38h1.82c.22,0,.38-.18.38-.38v-8.6h.02l8.36,9.18h.48c.2,0,.38-.16.38-.36v-13.46c0-.2-.18-.38-.38-.38h-1.84c-.22,0-.38.18-.38.38v8.26h-.02l-8.32-8.84h-.5c-.2,0-.38.16-.38.36v13.46ZM184.82,155.78c0,3.04,2.42,5.5,5.56,5.5s5.58-2.46,5.58-5.5v-8.32c0-.2-.18-.38-.38-.38h-1.9c-.22,0-.38.18-.38.38v8.2c0,1.68-1.18,3.02-2.92,3.02s-2.9-1.34-2.9-3.04v-8.18c0-.2-.16-.38-.38-.38h-1.9c-.2,0-.38.18-.38.38v8.32ZM165.84,159.72c.4.38,1.88,1.56,4.4,1.56,2.82,0,4.6-1.9,4.6-3.96,0-2.58-2.24-3.74-4.18-4.52-1.62-.66-2.36-1.3-2.36-2.24,0-.64.62-1.4,1.76-1.4s2.62,1,2.78,1.1c.24.16.54,0,.7-.24l.76-1.14c.14-.2.08-.54-.12-.66-.4-.3-1.96-1.34-4-1.34-3.18,0-4.5,2.06-4.5,3.84,0,2.36,1.88,3.56,3.76,4.32,1.68.68,2.54,1.38,2.54,2.4,0,.86-.78,1.54-1.82,1.54-1.3,0-2.92-1.18-3.02-1.24-.18-.14-.52-.14-.68.14l-.72,1.24c-.18.32-.08.42.1.6M158.86,160.7c0,.2.18.38.38.38h1.86c.2,0,.38-.18.38-.38v-13.24c0-.2-.18-.38-.38-.38h-1.86c-.2,0-.38.18-.38.38v13.24ZM142.86,155.78c0,3.04,2.42,5.5,5.56,5.5s5.58-2.46,5.58-5.5v-8.32c0-.2-.18-.38-.38-.38h-1.9c-.22,0-.38.18-.38.38v8.2c0,1.68-1.18,3.02-2.92,3.02s-2.9-1.34-2.9-3.04v-8.18c0-.2-.16-.38-.38-.38h-1.9c-.2,0-.38.18-.38.38v8.32ZM127.2,154.1c0-2.52,2.06-4.62,4.58-4.62s4.6,2.1,4.6,4.62-2.08,4.58-4.6,4.58-4.58-2.06-4.58-4.58M124.6,154.1c0,4,3.18,7.18,7.18,7.18s7.2-3.18,7.2-7.18-3.2-7.22-7.2-7.22-7.18,3.22-7.18,7.22M114.44,160.7c0,.2.16.38.38.38h7.32c.22,0,.38-.18.38-.38v-1.64c0-.2-.16-.38-.38-.38h-5.1v-11.22c0-.2-.18-.38-.38-.38h-1.84c-.22,0-.38.18-.38.38v13.24ZM98.68,160.7c0,.2.18.38.38.38h1.86c.2,0,.38-.18.38-.38v-11.22h3.06c.22,0,.38-.18.38-.38v-1.64c0-.2-.16-.38-.38-.38h-8.74c-.22,0-.38.18-.38.38v1.64c0,.2.16.38.38.38h3.06v11.22ZM80.03,160.7c0,.2.18.38.38.38h1.82c.22,0,.38-.18.38-.38v-8.6h.02l8.36,9.18h.48c.2,0,.38-.16.38-.36v-13.46c0-.2-.18-.38-.38-.38h-1.84c-.22,0-.38.18-.38.38v8.26h-.02l-8.32-8.84h-.5c-.2,0-.38.16-.38.36v13.46ZM72.43,160.7c0,.2.18.38.38.38h1.86c.2,0,.38-.18.38-.38v-13.24c0-.2-.18-.38-.38-.38h-1.86c-.2,0-.38.18-.38.38v13.24ZM60.51,156.3l1.96-4.4h.06l2,4.4h-4.02ZM56.23,161.08h1.74c.32,0,.5-.2.58-.4l.98-2.16h5.98l.98,2.16c.14.28.28.4.58.4h1.74c.3,0,.46-.26.34-.52l-6.16-13.46c-.06-.12-.14-.22-.34-.22h-.2c-.18,0-.28.1-.34.22l-6.22,13.46c-.12.26.04.52.34.52M44.65,159.72c.4.38,1.88,1.56,4.4,1.56,2.82,0,4.6-1.9,4.6-3.96,0-2.58-2.24-3.74-4.18-4.52-1.62-.66-2.36-1.3-2.36-2.24,0-.64.62-1.4,1.76-1.4s2.62,1,2.78,1.1c.24.16.54,0,.7-.24l.76-1.14c.14-.2.08-.54-.12-.66-.4-.3-1.96-1.34-4-1.34-3.18,0-4.5,2.06-4.5,3.84,0,2.36,1.88,3.56,3.76,4.32,1.68.68,2.54,1.38,2.54,2.4,0,.86-.78,1.54-1.82,1.54-1.3,0-2.92-1.18-3.02-1.24-.18-.14-.52-.14-.68.14l-.72,1.24c-.18.32-.08.42.1.6"/><path class="cls-2" d="M177.72,130.73c-.29-.12-7.18-3.08-14.12-8.84-9.48-7.85-14.48-17.15-14.48-26.9v-40.1h17.4c-.07-.33-.1-.68-.1-1.03,0-1.38.53-2.67,1.5-3.63.97-.97,2.26-1.51,3.63-1.51h1.2v-4.11h3.08v-3.09h6.17v3.09h3.08v4.11h1.2c1.37,0,2.66.53,3.64,1.51,1.26,1.26,1.73,3.03,1.4,4.66h17.41v40.1c0,9.75-5.01,19.05-14.48,26.9-6.95,5.75-13.84,8.72-14.13,8.84l-1.21.51-1.21-.51Z"/><path class="cls-1" d="M173.18,56.95h4.71v-4.11h-6.34c-.27,0-.53.11-.73.3-.4.4-.4,1.05,0,1.46l2.36,2.36ZM179.95,56.95h4.71l2.36-2.36c.4-.4.4-1.05,0-1.45-.19-.19-.46-.3-.73-.3h-6.34v4.11ZM188.8,86.14c3.21,0,5.81,2.61,5.81,5.81,0,.74-.14,1.47-.41,2.13,2.47-.9,4.72-2.5,4.72-5.6,0-3.39-2.76-6.15-6.15-6.15-2.74,0-5.08,1.82-6.86,4.46,1.01-.49,2.01-.66,2.89-.66M165.08,82.34c-3.39,0-6.15,2.76-6.15,6.15,0,3.1,2.25,4.7,4.72,5.6-.27-.67-.41-1.39-.41-2.14,0-3.21,2.61-5.81,5.81-5.81.88,0,1.88.16,2.89.66-1.79-2.64-4.12-4.46-6.86-4.46M177.88,101.43h2.06c.22-8.47.68-14.77,1.65-17.54,1.61-4.58,2.42-7.19,2.42-8.72,0-2.33-1.86-4.89-3.35-6.95l-.17-.24c-.59-.81-1.14-1.59-1.58-2.2-.43.61-.99,1.39-1.58,2.2l-.17.24c-1.49,2.06-3.35,4.62-3.35,6.94,0,1.52.82,4.13,2.42,8.72.96,2.74,1.35,9.07,1.64,17.54M190.41,99.07c0,1.3,1.06,2.36,2.37,2.36h11.01c.56-2.11.85-4.25.85-6.44v-35.98h-51.41v35.98c0,2.19.28,4.34.85,6.44h11.01c1.3,0,2.37-1.06,2.37-2.36,0-.75-.36-1.44-1.51-2.2-6.01-1.3-9.06-4.11-9.06-8.37,0-4.53,3.68-8.21,8.21-8.21,3.68,0,7.07,2.47,9.55,6.94.13.24.26.48.38.72-.19-1.38-.42-2.57-.71-3.38-1.72-4.91-2.54-7.57-2.54-9.4,0-2.99,2.07-5.85,3.74-8.15l.17-.24c1.26-1.74,2.39-3.34,2.4-3.36l.84-1.2.84,1.2s1.15,1.63,2.4,3.36l.17.24c1.67,2.3,3.74,5.16,3.74,8.15,0,1.83-.82,4.49-2.54,9.4-.29.82-.52,1.97-.71,3.38.13-.27.27-.46.42-.72,2.48-4.48,5.87-6.94,9.55-6.94,4.53,0,8.21,3.68,8.21,8.21,0,4.25-3.05,7.07-9.06,8.37-1.16.77-1.52,1.46-1.52,2.2M172.99,112.63c.57.95,1.92,1.66,3.03,1.66h1.03v1.03c0,2.06,1.14,3.53,1.87,4.25.73-.72,1.86-2.18,1.86-4.25v-1.03h1.03c1.12,0,2.46-.71,3.03-1.66-2.55-.41-4.72-1.99-5.92-4.17-1.21,2.18-3.37,3.76-5.92,4.17M154.71,103.49c1.94,5.39,5.77,10.48,11.46,15.2,5.57,4.62,11.22,7.37,12.75,8.08,1.53-.7,7.18-3.45,12.75-8.08,5.69-4.72,9.52-9.81,11.46-15.2h-10.36c-2.44,0-4.42-1.98-4.42-4.42,0-1.74,1.03-3.31,2.6-4.03.99-.7,1.61-1.85,1.61-3.08,0-2.07-1.69-3.76-3.76-3.76-5.58,0-6.6,9.36-6.79,12.16,0,.41-.02.77-.02,1.07h2.82v2.06h-4.88s0,.99,0,.99c0,3.42,2.78,6.2,6.2,6.2h1.03v1.03c0,1.25-.64,2.45-1.81,3.37-.76.6-1.67,1.01-2.58,1.18-.43,3.49-3.15,5.42-3.27,5.51l-.59.41-.59-.41c-.12-.09-2.84-2.03-3.27-5.51-.91-.17-1.82-.58-2.58-1.18-1.17-.92-1.81-2.11-1.81-3.36v-1.03h1.03c3.42,0,6.2-2.78,6.2-6.2v-.99h-4.85v-2.06h2.82c0-.33-.01-.72-.03-1.17-.2-2.92-1.26-12.07-6.78-12.07-2.07,0-3.76,1.69-3.76,3.76,0,1.24.61,2.39,1.61,3.08,1.57.71,2.6,2.29,2.6,4.03,0,2.44-1.98,4.42-4.42,4.42h-10.36ZM178.92,129.01l-.4-.17c-.28-.12-6.9-2.97-13.62-8.53-8.99-7.44-13.74-16.2-13.74-25.31v-38.04h19.11l-.9-.9c-1.2-1.2-1.2-3.16,0-4.36.58-.58,1.36-.9,2.18-.9h6.34v-2.06h-3.08v-2.06h3.08v-3.08h2.06v3.08h3.08v2.06h-3.08v2.06h6.34c.81,0,1.61.33,2.18.9,1.2,1.2,1.2,3.16,0,4.36l-.9.9h19.11v38.04c0,9.12-4.75,17.87-13.74,25.31-6.72,5.57-13.34,8.41-13.62,8.53l-.4.17Z"/></svg>