<?xml version="1.0" encoding="UTF-8"?><svg xmlns="http://www.w3.org/2000/svg" viewBox="0 0 360 252"><defs><style>.cls-1{fill:#231f20;}.cls-2{fill:#fff;}.cls-3{fill:#003da5;}</style></defs><rect class="cls-1" width="360" height="252"/><g id="Layer_1"><rect class="cls-2" x="90.07" y="123.68" width="15.51" height="1.92"/><path class="cls-2" d="M264.44,159.39c.23.22,1.07.89,2.5.89,1.6,0,2.62-1.08,2.62-2.25,0-1.47-1.27-2.13-2.38-2.57-.92-.38-1.34-.74-1.34-1.27,0-.37.35-.8,1-.8s1.49.57,1.58.63c.14.09.31,0,.4-.14l.43-.65c.08-.11.05-.31-.07-.38-.23-.17-1.11-.76-2.28-.76-1.81,0-2.56,1.17-2.56,2.18,0,1.34,1.07,2.03,2.14,2.46.96.39,1.45.79,1.45,1.37,0,.49-.44.88-1.04.88-.74,0-1.66-.67-1.72-.71-.1-.08-.29-.08-.39.08l-.41.71c-.1.18-.05.24.06.34M258.18,155.89v-2.29h1.32c.64,0,1.17.48,1.17,1.1,0,.67-.53,1.18-1.17,1.18h-1.32ZM256.7,159.95c0,.11.09.22.22.22h1.05c.11,0,.22-.1.22-.22v-2.67h1.42c1.39,0,2.54-1.15,2.54-2.56s-1.15-2.51-2.55-2.51h-2.67c-.13,0-.22.1-.22.22v7.53ZM251.89,159.95c0,.11.1.22.22.22h1.06c.11,0,.22-.1.22-.22v-7.53c0-.11-.1-.22-.22-.22h-1.06c-.11,0-.22.1-.22.22v7.53ZM241.87,159.95c0,.11.1.22.22.22h1.06c.13,0,.22-.1.22-.22v-3.14h3.71v3.14c0,.11.09.22.22.22h1.05c.11,0,.22-.1.22-.22v-7.53c0-.11-.1-.22-.22-.22h-1.05c-.13,0-.22.1-.22.22v3.02h-3.71v-3.02c0-.11-.09-.22-.22-.22h-1.06c-.11,0-.22.1-.22.22v7.53ZM233.98,159.39c.23.22,1.07.89,2.5.89,1.6,0,2.62-1.08,2.62-2.25,0-1.47-1.27-2.13-2.38-2.57-.92-.38-1.34-.74-1.34-1.27,0-.37.35-.8,1-.8s1.49.57,1.58.63c.14.09.31,0,.4-.14l.43-.65c.08-.11.05-.31-.07-.38-.23-.17-1.11-.76-2.28-.76-1.81,0-2.56,1.17-2.56,2.18,0,1.34,1.07,2.03,2.14,2.46.96.39,1.45.79,1.45,1.37,0,.49-.44.88-1.04.88-.74,0-1.66-.67-1.72-.71-.1-.08-.3-.08-.39.08l-.41.71c-.1.18-.05.24.06.34M227.01,155.83v-2.27h1.86c.6,0,1.13.5,1.13,1.1,0,.64-.52,1.16-1.13,1.16h-1.86ZM225.52,159.95c0,.11.09.22.22.22h1.05c.11,0,.22-.1.22-.22v-2.9h1.26l1.51,3.02s.08.1.18.1h1.19c.19,0,.27-.18.19-.33l-1.56-2.89c.99-.4,1.68-1.25,1.68-2.3,0-1.35-1.11-2.45-2.48-2.45h-3.25c-.13,0-.22.1-.22.22v7.53ZM217.51,159.95c0,.11.09.22.22.22h4.63c.13,0,.22-.1.22-.22v-.93c0-.11-.09-.22-.22-.22h-3.37v-1.99h2.81c.11,0,.22-.09.22-.22v-.94c0-.11-.1-.22-.22-.22h-2.81v-1.87h3.37c.13,0,.22-.1.22-.22v-.93c0-.11-.09-.22-.22-.22h-4.63c-.13,0-.22.1-.22.22v7.53ZM207.45,159.95c0,.11.1.22.22.22h1.03c.13,0,.22-.1.22-.22v-4.89h.01l4.76,5.22h.27c.11,0,.22-.09.22-.2v-7.66c0-.11-.1-.22-.22-.22h-1.05c-.13,0-.22.1-.22.22v4.7h-.01l-4.73-5.03h-.28c-.11,0-.22.09-.22.2v7.66ZM201.6,159.95c0,.11.1.22.22.22h1.06c.11,0,.22-.1.22-.22v-6.38h1.74c.13,0,.22-.1.22-.22v-.93c0-.11-.09-.22-.22-.22h-4.97c-.13,0-.22.1-.22.22v.93c0,.11.09.22.22.22h1.74v6.38ZM193.11,155.83v-2.27h1.86c.6,0,1.13.5,1.13,1.1,0,.64-.52,1.16-1.13,1.16h-1.86ZM191.62,159.95c0,.11.09.22.22.22h1.05c.11,0,.22-.1.22-.22v-2.9h1.26l1.51,3.02s.08.1.18.1h1.19c.19,0,.27-.18.19-.33l-1.56-2.89c.99-.4,1.68-1.25,1.68-2.3,0-1.35-1.11-2.45-2.48-2.45h-3.25c-.13,0-.22.1-.22.22v7.53ZM184.35,157.44l1.12-2.5h.03l1.14,2.5h-2.29ZM181.92,160.16h.99c.18,0,.28-.11.33-.23l.56-1.23h3.4l.56,1.23c.08.16.16.23.33.23h.99c.17,0,.26-.15.19-.3l-3.5-7.66c-.03-.07-.08-.13-.19-.13h-.11c-.1,0-.16.06-.19.13l-3.54,7.66c-.07.15.02.3.19.3M176.77,155.89v-2.29h1.32c.64,0,1.17.48,1.17,1.1,0,.67-.53,1.18-1.17,1.18h-1.32ZM175.3,159.95c0,.11.09.22.22.22h1.05c.11,0,.22-.1.22-.22v-2.67h1.42c1.39,0,2.54-1.15,2.54-2.56s-1.15-2.51-2.55-2.51h-2.67c-.13,0-.22.1-.22.22v7.53ZM165.17,159.95c0,.11.09.22.22.22h1.04c.11,0,.22-.1.22-.22v-3.63l2.63-3.79c.09-.15,0-.33-.18-.33h-1.17c-.09,0-.15.06-.18.1l-1.82,2.62-1.82-2.62s-.09-.1-.18-.1h-1.16c-.18,0-.27.18-.18.33l2.59,3.8v3.62ZM157.23,159.95c0,.11.1.22.22.22h1.06c.11,0,.22-.1.22-.22v-6.38h1.74c.13,0,.22-.1.22-.22v-.93c0-.11-.09-.22-.22-.22h-4.97c-.13,0-.22.1-.22.22v.93c0,.11.09.22.22.22h1.74v6.38ZM151.39,159.95c0,.11.1.22.22.22h1.06c.11,0,.22-.1.22-.22v-7.53c0-.11-.1-.22-.22-.22h-1.06c-.11,0-.22.1-.22.22v7.53ZM141.33,159.95c0,.11.1.22.22.22h1.03c.13,0,.22-.1.22-.22v-4.89h.01l4.76,5.22h.27c.11,0,.22-.09.22-.2v-7.66c0-.11-.1-.22-.22-.22h-1.05c-.13,0-.22.1-.22.22v4.7h-.01l-4.73-5.03h-.28c-.11,0-.22.09-.22.2v7.66ZM131.74,157.15c0,1.73,1.37,3.13,3.16,3.13s3.17-1.4,3.17-3.13v-4.73c0-.11-.1-.22-.22-.22h-1.08c-.12,0-.22.1-.22.22v4.67c0,.96-.67,1.72-1.66,1.72s-1.65-.76-1.65-1.73v-4.65c0-.11-.09-.22-.22-.22h-1.08c-.11,0-.22.1-.22.22v4.73ZM120.21,159.9c-.02.16.07.26.22.26h1.02c.1,0,.19-.09.2-.17l.66-4.31h.03l2.01,4.47c.03.07.09.13.19.13h.2c.1,0,.17-.06.19-.13l1.99-4.47h.03l.67,4.31c.02.08.11.17.22.17h1.04c.15,0,.24-.1.2-.26l-1.34-7.64c-.01-.09-.08-.17-.2-.17h-.18c-.1,0-.16.05-.19.11l-2.5,5.37h-.03l-2.5-5.37c-.03-.07-.1-.11-.19-.11h-.18c-.13,0-.19.08-.2.17l-1.35,7.64ZM108.96,159.9c-.02.16.07.26.22.26h1.02c.1,0,.19-.09.2-.17l.66-4.31h.03l2.01,4.47c.03.07.09.13.19.13h.2c.1,0,.17-.06.19-.13l1.99-4.47h.03l.67,4.31c.02.08.11.17.22.17h1.04c.15,0,.24-.1.2-.26l-1.34-7.64c-.01-.09-.08-.17-.2-.17h-.18c-.1,0-.16.05-.19.11l-2.5,5.37h-.03l-2.5-5.37c-.03-.07-.1-.11-.19-.11h-.18c-.13,0-.19.08-.2.17l-1.35,7.64ZM100.08,156.19c0-1.43,1.17-2.63,2.61-2.63s2.62,1.2,2.62,2.63-1.18,2.61-2.62,2.61-2.61-1.17-2.61-2.61M98.6,156.19c0,2.28,1.81,4.08,4.08,4.08s4.1-1.81,4.1-4.08-1.82-4.11-4.1-4.11-4.08,1.83-4.08,4.11M89.74,156.19c0,2.28,1.83,4.08,4.11,4.08,1.01,0,1.99-.35,2.77-1.1.08-.08.1-.23.01-.31l-.71-.73c-.07-.07-.19-.08-.28,0-.48.39-1.06.65-1.74.65-1.46,0-2.55-1.21-2.55-2.63s1.08-2.65,2.54-2.65c.64,0,1.27.25,1.75.67.09.09.2.09.28,0l.69-.72c.09-.09.09-.23-.01-.32-.77-.69-1.6-1.06-2.75-1.06-2.28,0-4.11,1.83-4.11,4.11"/><path class="cls-2" d="M241.85,142.66v-5.2h1.3c1.48,0,2.56,1.12,2.56,2.6s-1.08,2.61-2.56,2.61h-1.3ZM240.38,143.83c0,.11.09.22.2.22h2.7c2.2,0,3.99-1.78,3.99-3.99s-1.8-3.97-3.99-3.97h-2.7c-.11,0-.2.1-.2.22v7.53ZM230.32,143.83c0,.11.1.22.22.22h1.03c.13,0,.22-.1.22-.22v-4.89h.01l4.76,5.22h.27c.11,0,.22-.09.22-.2v-7.66c0-.11-.1-.22-.22-.22h-1.05c-.13,0-.22.1-.22.22v4.7h-.01l-4.73-5.03h-.28c-.11,0-.22.09-.22.2v7.66ZM223.06,141.32l1.12-2.5h.03l1.14,2.5h-2.29ZM220.62,144.04h.99c.18,0,.28-.11.33-.23l.56-1.23h3.4l.56,1.23c.08.16.16.23.33.23h.99c.17,0,.26-.15.19-.3l-3.5-7.66c-.03-.07-.08-.13-.19-.13h-.11c-.1,0-.16.06-.19.13l-3.54,7.66c-.07.15.02.3.19.3M210.7,143.83c0,.11.09.22.22.22h4.16c.13,0,.22-.1.22-.22v-.93c0-.11-.09-.22-.22-.22h-2.9v-6.38c0-.11-.1-.22-.22-.22h-1.05c-.13,0-.22.1-.22.22v7.53ZM201.2,140.07c0-1.43,1.17-2.63,2.61-2.63s2.62,1.2,2.62,2.63-1.18,2.61-2.62,2.61-2.61-1.17-2.61-2.61M199.72,140.07c0,2.28,1.81,4.08,4.08,4.08s4.1-1.81,4.1-4.08-1.82-4.11-4.1-4.11-4.08,1.83-4.08,4.11M190.73,140.07c0-1.43,1.17-2.63,2.61-2.63s2.62,1.2,2.62,2.63-1.18,2.61-2.62,2.61-2.61-1.17-2.61-2.61M189.25,140.07c0,2.28,1.81,4.08,4.08,4.08s4.1-1.81,4.1-4.08-1.82-4.11-4.1-4.11-4.08,1.83-4.08,4.11M179.77,143.83c0,.11.1.22.22.22h1.06c.13,0,.22-.1.22-.22v-3.14h3.71v3.14c0,.11.09.22.22.22h1.05c.11,0,.22-.1.22-.22v-7.53c0-.11-.1-.22-.22-.22h-1.05c-.13,0-.22.1-.22.22v3.02h-3.71v-3.02c0-.11-.09-.22-.22-.22h-1.06c-.11,0-.22.1-.22.22v7.53ZM170.19,140.07c0,2.28,1.83,4.08,4.11,4.08,1.01,0,1.99-.35,2.77-1.1.08-.08.1-.23.01-.31l-.71-.73c-.07-.07-.19-.08-.28,0-.48.39-1.06.65-1.74.65-1.46,0-2.55-1.21-2.55-2.63s1.08-2.65,2.54-2.65c.64,0,1.27.25,1.75.67.09.09.2.09.28,0l.69-.72c.09-.09.09-.23-.01-.32-.77-.69-1.6-1.06-2.75-1.06-2.28,0-4.11,1.83-4.11,4.11M162.91,143.27c.23.22,1.07.89,2.5.89,1.6,0,2.62-1.08,2.62-2.25,0-1.47-1.27-2.13-2.38-2.57-.92-.38-1.34-.74-1.34-1.27,0-.37.35-.8,1-.8s1.49.57,1.58.63c.14.09.31,0,.4-.14l.43-.65c.08-.11.05-.31-.07-.38-.23-.17-1.11-.76-2.27-.76-1.81,0-2.56,1.17-2.56,2.18,0,1.34,1.07,2.03,2.14,2.46.96.39,1.45.79,1.45,1.37,0,.49-.44.88-1.04.88-.74,0-1.66-.67-1.72-.71-.1-.08-.3-.08-.39.08l-.41.71c-.1.18-.05.24.06.34M151.88,143.83c0,.11.09.22.22.22h1.05c.11,0,.22-.1.22-.22v-2.88h2.81c.11,0,.22-.1.22-.22v-.93c0-.11-.1-.22-.22-.22h-2.81v-2.14h3.37c.13,0,.22-.1.22-.22v-.93c0-.11-.09-.22-.22-.22h-4.63c-.13,0-.22.1-.22.22v7.53ZM142.38,140.07c0-1.43,1.17-2.63,2.61-2.63s2.62,1.2,2.62,2.63-1.18,2.61-2.62,2.61-2.61-1.17-2.61-2.61M140.9,140.07c0,2.28,1.81,4.08,4.08,4.08s4.1-1.81,4.1-4.08-1.82-4.11-4.1-4.11-4.08,1.83-4.08,4.11M129.76,143.83c0,.11.09.22.22.22h4.63c.13,0,.22-.1.22-.22v-.93c0-.11-.09-.22-.22-.22h-3.37v-1.99h2.81c.11,0,.22-.09.22-.22v-.94c0-.11-.1-.22-.22-.22h-2.81v-1.87h3.37c.13,0,.22-.1.22-.22v-.93c0-.11-.09-.22-.22-.22h-4.63c-.13,0-.22.1-.22.22v7.53ZM120.18,140.07c0,2.28,1.83,4.08,4.11,4.08,1.01,0,1.99-.35,2.77-1.1.08-.08.1-.23.01-.31l-.71-.73c-.07-.07-.19-.08-.28,0-.48.39-1.06.65-1.74.65-1.46,0-2.55-1.21-2.55-2.63s1.08-2.65,2.54-2.65c.64,0,1.27.25,1.75.67.09.09.2.09.28,0l.69-.72c.09-.09.09-.23-.01-.32-.77-.69-1.6-1.06-2.75-1.06-2.28,0-4.11,1.83-4.11,4.11M115.91,143.83c0,.11.1.22.22.22h1.06c.11,0,.22-.1.22-.22v-7.53c0-.11-.1-.22-.22-.22h-1.06c-.11,0-.22.1-.22.22v7.53ZM108.32,143.83c0,.11.09.22.22.22h1.05c.11,0,.22-.1.22-.22v-2.88h2.81c.11,0,.22-.1.22-.22v-.93c0-.11-.1-.22-.22-.22h-2.81v-2.14h3.37c.13,0,.22-.1.22-.22v-.93c0-.11-.09-.22-.22-.22h-4.63c-.13,0-.22.1-.22.22v7.53ZM100.73,143.83c0,.11.09.22.22.22h1.05c.11,0,.22-.1.22-.22v-2.88h2.81c.11,0,.22-.1.22-.22v-.93c0-.11-.1-.22-.22-.22h-2.81v-2.14h3.37c.13,0,.22-.1.22-.22v-.93c0-.11-.09-.22-.22-.22h-4.63c-.13,0-.22.1-.22.22v7.53ZM91.23,140.07c0-1.43,1.17-2.63,2.61-2.63s2.62,1.2,2.62,2.63-1.18,2.61-2.62,2.61-2.61-1.17-2.61-2.61M89.75,140.07c0,2.28,1.81,4.08,4.08,4.08s4.1-1.81,4.1-4.08-1.82-4.11-4.1-4.11-4.08,1.83-4.08,4.11"/><path class="cls-2" d="M335.09,112.81c0,.19.15.36.36.36h1.74c.19,0,.36-.17.36-.36v-6.05l4.38-6.32c.15-.25,0-.55-.3-.55h-1.95c-.15,0-.25.09-.3.17l-3.03,4.36-3.03-4.36c-.06-.08-.15-.17-.3-.17h-1.93c-.3,0-.46.3-.3.55l4.32,6.33v6.03ZM322.66,112.81c0,.19.17.36.36.36h1.76c.19,0,.36-.17.36-.36v-10.64h2.9c.21,0,.36-.17.36-.36v-1.56c0-.19-.15-.36-.36-.36h-8.29c-.21,0-.36.17-.36.36v1.56c0,.19.15.36.36.36h2.9v10.64ZM313.73,112.81c0,.19.17.36.36.36h1.76c.19,0,.36-.17.36-.36v-12.55c0-.19-.17-.36-.36-.36h-1.76c-.19,0-.36.17-.36.36v12.55ZM301.38,111.88c.38.36,1.78,1.48,4.17,1.48,2.67,0,4.36-1.8,4.36-3.75,0-2.45-2.12-3.55-3.96-4.29-1.54-.63-2.24-1.23-2.24-2.12,0-.61.59-1.33,1.67-1.33s2.48.95,2.64,1.04c.23.15.51,0,.66-.23l.72-1.08c.13-.19.08-.51-.11-.63-.38-.28-1.86-1.27-3.79-1.27-3.02,0-4.27,1.95-4.27,3.64,0,2.24,1.78,3.38,3.57,4.1,1.59.64,2.41,1.31,2.41,2.28,0,.82-.74,1.46-1.73,1.46-1.23,0-2.77-1.12-2.86-1.18-.17-.13-.49-.13-.64.13l-.68,1.18c-.17.3-.08.4.09.57M290.57,105.94v-3.77h3.09c1.01,0,1.88.83,1.88,1.84,0,1.06-.87,1.93-1.88,1.93h-3.09ZM288.09,112.81c0,.19.15.36.36.36h1.74c.19,0,.36-.17.36-.36v-4.84h2.11l2.52,5.03c.04.08.13.17.3.17h1.99c.32,0,.46-.3.32-.55l-2.6-4.82c1.65-.66,2.81-2.09,2.81-3.83,0-2.26-1.86-4.08-4.13-4.08h-5.42c-.21,0-.36.17-.36.36v12.55ZM275.55,112.81c0,.19.15.36.36.36h7.72c.21,0,.36-.17.36-.36v-1.56c0-.19-.15-.36-.36-.36h-5.61v-3.32h4.68c.19,0,.36-.15.36-.36v-1.57c0-.19-.17-.36-.36-.36h-4.68v-3.11h5.61c.21,0,.36-.17.36-.36v-1.56c0-.19-.15-.36-.36-.36h-7.72c-.21,0-.36.17-.36.36v12.55ZM265.73,113.15c.06.11.15.21.32.21h.19c.17,0,.27-.09.32-.21l5.88-12.76c.11-.25-.04-.49-.32-.49h-1.93c-.17,0-.28.11-.32.21l-3.64,8.15h-.13l-3.64-8.15c-.04-.09-.15-.21-.32-.21h-1.93c-.28,0-.44.25-.32.49l5.86,12.76ZM254.29,112.81c0,.19.17.36.36.36h1.76c.19,0,.36-.17.36-.36v-12.55c0-.19-.17-.36-.36-.36h-1.76c-.19,0-.36.17-.36.36v12.55ZM238.34,112.81c0,.19.17.36.36.36h1.73c.21,0,.36-.17.36-.36v-8.15h.02l7.93,8.7h.46c.19,0,.36-.15.36-.34v-12.76c0-.19-.17-.36-.36-.36h-1.74c-.21,0-.36.17-.36.36v7.83h-.02l-7.89-8.38h-.47c-.19,0-.36.15-.36.34v12.76ZM223.16,108.14c0,2.88,2.29,5.22,5.27,5.22s5.29-2.33,5.29-5.22v-7.89c0-.19-.17-.36-.36-.36h-1.8c-.21,0-.36.17-.36.36v7.78c0,1.59-1.12,2.86-2.77,2.86s-2.75-1.27-2.75-2.88v-7.76c0-.19-.15-.36-.36-.36h-1.8c-.19,0-.36.17-.36.36v7.89ZM205.17,111.88c.38.36,1.78,1.48,4.17,1.48,2.67,0,4.36-1.8,4.36-3.75,0-2.45-2.12-3.55-3.96-4.29-1.54-.63-2.24-1.23-2.24-2.12,0-.61.59-1.33,1.67-1.33s2.48.95,2.64,1.04c.23.15.51,0,.66-.23l.72-1.08c.13-.19.08-.51-.11-.63-.38-.28-1.86-1.27-3.79-1.27-3.02,0-4.27,1.95-4.27,3.64,0,2.24,1.78,3.38,3.57,4.1,1.59.64,2.41,1.31,2.41,2.28,0,.82-.74,1.46-1.73,1.46-1.23,0-2.77-1.12-2.86-1.18-.17-.13-.49-.13-.64.13l-.68,1.18c-.17.3-.08.4.09.57M198.55,112.81c0,.19.17.36.36.36h1.76c.19,0,.36-.17.36-.36v-12.55c0-.19-.17-.36-.36-.36h-1.76c-.19,0-.36.17-.36.36v12.55ZM183.38,108.14c0,2.88,2.29,5.22,5.27,5.22s5.29-2.33,5.29-5.22v-7.89c0-.19-.17-.36-.36-.36h-1.8c-.21,0-.36.17-.36.36v7.78c0,1.59-1.12,2.86-2.77,2.86s-2.75-1.27-2.75-2.88v-7.76c0-.19-.15-.36-.36-.36h-1.8c-.19,0-.36.17-.36.36v7.89ZM168.53,106.55c0-2.39,1.95-4.38,4.34-4.38s4.36,1.99,4.36,4.38-1.97,4.34-4.36,4.34-4.34-1.95-4.34-4.34M166.06,106.55c0,3.79,3.02,6.81,6.81,6.81s6.83-3.02,6.83-6.81-3.03-6.85-6.83-6.85-6.81,3.05-6.81,6.85M156.42,112.81c0,.19.15.36.36.36h6.94c.21,0,.36-.17.36-.36v-1.56c0-.19-.15-.36-.36-.36h-4.84v-10.64c0-.19-.17-.36-.36-.36h-1.74c-.21,0-.36.17-.36.36v12.55ZM141.48,112.81c0,.19.17.36.36.36h1.76c.19,0,.36-.17.36-.36v-10.64h2.9c.21,0,.36-.17.36-.36v-1.56c0-.19-.15-.36-.36-.36h-8.29c-.21,0-.36.17-.36.36v1.56c0,.19.15.36.36.36h2.9v10.64ZM123.8,112.81c0,.19.17.36.36.36h1.73c.21,0,.36-.17.36-.36v-8.15h.02l7.93,8.7h.46c.19,0,.36-.15.36-.34v-12.76c0-.19-.17-.36-.36-.36h-1.74c-.21,0-.36.17-.36.36v7.83h-.02l-7.89-8.38h-.47c-.19,0-.36.15-.36.34v12.76ZM116.59,112.81c0,.19.17.36.36.36h1.76c.19,0,.36-.17.36-.36v-12.55c0-.19-.17-.36-.36-.36h-1.76c-.19,0-.36.17-.36.36v12.55ZM105.29,108.63l1.86-4.17h.06l1.9,4.17h-3.81ZM101.23,113.17h1.65c.3,0,.47-.19.55-.38l.93-2.05h5.67l.93,2.05c.13.27.27.38.55.38h1.65c.28,0,.44-.25.32-.49l-5.84-12.76c-.06-.11-.13-.21-.32-.21h-.19c-.17,0-.27.09-.32.21l-5.9,12.76c-.11.25.04.49.32.49M90.25,111.88c.38.36,1.78,1.48,4.17,1.48,2.67,0,4.36-1.8,4.36-3.75,0-2.45-2.12-3.55-3.96-4.29-1.54-.63-2.24-1.23-2.24-2.12,0-.61.59-1.33,1.67-1.33s2.48.95,2.64,1.04c.23.15.51,0,.66-.23l.72-1.08c.13-.19.08-.51-.11-.63-.38-.28-1.86-1.27-3.79-1.27-3.02,0-4.27,1.95-4.27,3.64,0,2.24,1.78,3.38,3.57,4.1,1.59.64,2.41,1.31,2.41,2.28,0,.82-.74,1.46-1.73,1.46-1.23,0-2.77-1.12-2.86-1.18-.17-.13-.49-.13-.64.13l-.68,1.18c-.17.3-.08.4.09.57"/><path class="cls-2" d="M45.13,168.05c-.27-.12-6.81-2.92-13.39-8.38-8.99-7.44-13.73-16.26-13.73-25.51v-38.02h16.5c-.06-.32-.1-.64-.1-.97,0-1.3.51-2.53,1.43-3.45.92-.92,2.14-1.43,3.44-1.43h1.14v-3.9h2.92v-2.93h5.85v2.93h2.92v3.9h1.14c1.3,0,2.53.51,3.45,1.43,1.2,1.2,1.64,2.87,1.33,4.42h16.51v38.02c0,9.25-4.75,18.07-13.73,25.51-6.59,5.46-13.12,8.26-13.39,8.38l-1.14.49-1.14-.49Z"/><path class="cls-3" d="M40.83,98.09h4.47v-3.9h-6.02c-.26,0-.5.1-.69.29-.38.38-.38,1,0,1.38l2.23,2.23ZM47.25,98.09h4.47l2.24-2.23c.38-.38.38-1,0-1.38-.18-.18-.43-.29-.69-.29h-6.02v3.9ZM55.64,125.77c3.04,0,5.51,2.47,5.51,5.51,0,.7-.14,1.39-.39,2.02,2.34-.86,4.47-2.37,4.47-5.31,0-3.22-2.62-5.83-5.83-5.83-2.6,0-4.81,1.72-6.51,4.23.95-.47,1.9-.62,2.74-.62M33.14,122.17c-3.22,0-5.83,2.62-5.83,5.83,0,2.94,2.14,4.45,4.47,5.31-.25-.64-.39-1.32-.39-2.03,0-3.04,2.47-5.51,5.51-5.51.84,0,1.79.16,2.74.62-1.69-2.5-3.9-4.23-6.51-4.23M45.28,140.27h1.95c.21-8.03.64-14.01,1.56-16.63,1.52-4.35,2.3-6.82,2.3-8.27,0-2.21-1.76-4.63-3.18-6.58l-.16-.22c-.55-.77-1.08-1.51-1.49-2.08-.41.58-.94,1.32-1.49,2.08l-.16.23c-1.41,1.95-3.18,4.38-3.18,6.58,0,1.44.77,3.92,2.3,8.27.91,2.6,1.28,8.6,1.56,16.63M57.16,138.03c0,1.24,1.01,2.24,2.24,2.24h10.44c.53-2,.8-4.03.8-6.11v-34.12H21.9v34.12c0,2.07.27,4.11.8,6.11h10.44c1.24,0,2.24-1.01,2.24-2.24,0-.71-.34-1.36-1.44-2.09-5.7-1.23-8.59-3.9-8.59-7.94,0-4.29,3.49-7.78,7.78-7.78,3.49,0,6.7,2.34,9.05,6.58.12.22.24.45.36.68-.18-1.31-.4-2.44-.67-3.2-1.63-4.66-2.41-7.18-2.41-8.91,0-2.84,1.97-5.55,3.55-7.73l.16-.23c1.19-1.64,2.26-3.17,2.27-3.19l.8-1.13.8,1.13s1.09,1.54,2.28,3.19l.16.22c1.58,2.18,3.55,4.89,3.55,7.73,0,1.74-.78,4.26-2.41,8.91-.27.78-.5,1.87-.68,3.21.13-.25.26-.44.39-.68,2.35-4.25,5.57-6.58,9.05-6.58,4.29,0,7.78,3.49,7.78,7.78,0,4.03-2.89,6.7-8.59,7.93-1.1.73-1.44,1.38-1.44,2.09M40.64,150.89c.54.9,1.82,1.58,2.88,1.58h.97v.97c0,1.96,1.08,3.34,1.77,4.03.69-.68,1.77-2.07,1.77-4.03v-.97h.97c1.06,0,2.33-.68,2.88-1.58-2.42-.38-4.47-1.88-5.62-3.95-1.15,2.07-3.2,3.57-5.62,3.95M23.31,142.22c1.84,5.11,5.48,9.94,10.87,14.41,5.28,4.38,10.64,6.99,12.09,7.66,1.45-.67,6.81-3.27,12.09-7.66,5.39-4.48,9.03-9.3,10.87-14.41h-9.83c-2.31,0-4.19-1.88-4.19-4.19,0-1.65.98-3.14,2.47-3.82.94-.66,1.52-1.75,1.52-2.92,0-1.97-1.6-3.56-3.56-3.56-5.29,0-6.26,8.87-6.43,11.53,0,.39-.02.73-.02,1.01h2.68v1.95h-4.63s0,.93,0,.93c0,3.24,2.64,5.88,5.88,5.88h.97v.97c0,1.19-.61,2.32-1.72,3.19-.73.57-1.58.96-2.45,1.12-.41,3.31-2.99,5.14-3.1,5.23l-.56.39-.56-.39c-.12-.08-2.7-1.92-3.1-5.23-.86-.16-1.72-.55-2.45-1.12-1.11-.87-1.72-2-1.72-3.19v-.97h.97c3.24,0,5.88-2.64,5.88-5.88v-.94h-4.6v-1.95h2.67c0-.31-.01-.68-.03-1.1-.19-2.76-1.2-11.44-6.43-11.44-1.97,0-3.56,1.6-3.56,3.56,0,1.17.58,2.26,1.53,2.92,1.49.68,2.46,2.17,2.46,3.82,0,2.31-1.88,4.19-4.19,4.19h-9.83ZM46.27,166.42l-.38-.16c-.26-.11-6.54-2.81-12.91-8.09-8.52-7.06-13.03-15.36-13.03-24v-36.07h18.12l-.86-.86c-1.14-1.14-1.14-3,0-4.14.55-.55,1.29-.86,2.07-.86h6.02v-1.95h-2.92v-1.95h2.92v-2.92h1.95v2.92h2.92v1.95h-2.92v1.95h6.02c.77,0,1.52.31,2.07.86,1.14,1.14,1.14,3,0,4.14l-.86.86h18.12v36.07c0,8.65-4.51,16.95-13.03,24-6.37,5.28-12.65,7.98-12.91,8.09l-.38.16Z"/></g></svg>